<?xml version="1.0" standalone="no"?>
<!DOCTYPE svg PUBLIC "-//W3C//DTD SVG 20010904//EN"
 "http://www.w3.org/TR/2001/REC-SVG-20010904/DTD/svg10.dtd">
<svg version="1.0" xmlns="http://www.w3.org/2000/svg"
 width="96pt" height="96pt" viewBox="0 0 1024.000000 1024.000000"
 preserveAspectRatio="xMidYMid meet">

<g transform="translate(0.000000,1024.000000) scale(0.100000,-0.100000)"
fill="#AAAAAA" stroke="none">
<path d="M4890 8393 c-170 -30 -336 -108 -484 -226 -237 -188 -377 -483 -392
-825 -6 -139 4 -253 42 -492 19 -123 22 -348 6 -435 -40 -203 -105 -334 -373
-745 -113 -173 -238 -372 -278 -442 -102 -180 -239 -469 -301 -633 -150 -400
-180 -582 -117 -716 27 -55 98 -139 119 -139 15 0 -18 -35 -74 -81 -26 -20
-43 -39 -36 -41 21 -7 140 13 195 33 74 28 187 106 252 174 73 76 138 109 216
109 131 0 188 -64 390 -439 170 -316 295 -535 344 -603 l46 -64 6 70 c8 82 38
144 109 224 63 71 80 107 80 168 0 101 -44 151 -175 200 -163 61 -243 131
-341 298 -63 106 -146 197 -209 227 -25 12 -69 21 -117 23 l-77 4 -11 55 c-55
265 -32 535 72 848 34 102 117 289 238 540 235 487 314 733 335 1040 6 98 6
102 -29 193 -52 136 -69 234 -63 361 6 120 23 187 67 253 115 174 328 128 441
-94 40 -78 59 -166 59 -270 0 -49 2 -88 5 -88 3 0 23 9 45 20 47 24 71 25 147
5 31 -8 62 -15 68 -15 6 0 9 29 7 78 -4 91 16 187 55 270 37 78 133 173 197
195 145 49 298 -18 371 -163 76 -150 72 -387 -10 -558 -31 -65 -35 -84 -35
-152 0 -226 72 -436 340 -989 247 -512 312 -691 354 -982 20 -136 21 -395 1
-515 -29 -177 -71 -329 -96 -345 -17 -10 6 -134 37 -197 54 -110 144 -170 269
-179 132 -10 247 35 364 142 37 33 84 75 106 93 l40 32 -90 0 c-74 0 -99 5
-141 24 -88 41 -162 135 -179 229 -4 21 -8 160 -9 310 -2 307 -12 373 -88 602
-45 139 -179 415 -254 527 -29 43 -51 78 -49 78 7 0 118 -145 172 -225 140
-209 221 -383 273 -589 36 -142 51 -298 47 -506 l-2 -165 31 -55 c45 -79 105
-115 193 -115 77 1 130 24 186 82 119 122 118 305 -6 694 -121 380 -283 703
-589 1169 -216 330 -214 326 -264 428 -134 267 -161 481 -110 862 23 171 23
420 0 525 -36 163 -101 320 -184 443 -53 77 -162 193 -233 248 -125 96 -320
182 -476 209 -108 19 -321 18 -433 -2z m-1108 -2990 c-57 -81 -158 -307 -208
-467 -106 -333 -122 -664 -44 -891 11 -32 19 -59 18 -60 -2 -1 -17 -11 -35
-23 -17 -12 -33 -22 -36 -22 -10 0 -58 134 -77 214 -37 153 -22 403 35 600 30
102 96 269 133 336 40 73 225 350 230 345 2 -2 -5 -16 -16 -32z"/>
<path d="M5412 7209 c-19 -4 -49 -22 -68 -40 -51 -50 -69 -107 -68 -219 1
-134 8 -145 123 -194 l93 -40 37 21 c24 14 46 39 66 79 28 53 30 66 30 158 0
89 -3 106 -25 145 -14 24 -37 53 -51 64 -33 24 -93 35 -137 26z m3 -95 c23 -9
37 -51 25 -74 -25 -47 -90 -30 -90 23 0 48 23 67 65 51z"/>
<path d="M4473 7190 c-55 -33 -78 -91 -78 -195 0 -137 32 -216 105 -258 l35
-20 76 37 c75 37 76 38 87 87 31 132 6 259 -64 327 -38 36 -50 42 -87 42 -24
0 -56 -8 -74 -20z m57 -90 c11 -11 20 -29 20 -39 0 -25 -26 -51 -50 -51 -20 0
-50 35 -50 57 0 15 36 53 50 53 6 0 19 -9 30 -20z"/>
<path d="M5946 3181 c-70 -101 -275 -268 -422 -343 -287 -148 -674 -180 -977
-82 -27 9 -51 14 -54 11 -2 -3 11 -34 30 -69 49 -88 77 -177 77 -246 0 -62
-22 -152 -46 -190 -18 -27 -22 -25 101 -46 220 -39 498 -42 740 -10 131 17
367 74 423 103 35 18 40 24 45 68 3 26 19 98 37 158 17 61 39 155 51 210 23
115 41 369 31 434 l-7 44 -29 -42z"/>
</g>
</svg>
