<?xml version="1.0" standalone="no"?>
<!DOCTYPE svg PUBLIC "-//W3C//DTD SVG 20010904//EN"
 "http://www.w3.org/TR/2001/REC-SVG-20010904/DTD/svg10.dtd">
<svg version="1.0" xmlns="http://www.w3.org/2000/svg"
 width="96" height="96" viewBox="0 0 1024.000000 1024.000000"
 preserveAspectRatio="xMidYMid meet">

<g transform="translate(0.000000,1024.000000) scale(0.100000,-0.100000)"
fill="#DDFFEE" stroke="none">
<path d="M4951 8374 c-167 -45 -313 -193 -350 -355 -15 -65 -13 -177 4 -243
34 -129 142 -253 262 -302 l73 -29 0 -336 0 -336 -82 -7 c-198 -16 -476 -99
-646 -192 -34 -19 -67 -34 -72 -34 -5 0 -46 55 -90 122 l-80 122 23 45 c32 67
36 196 8 271 -30 79 -98 152 -178 192 -57 28 -77 33 -142 33 -65 0 -86 -5
-143 -32 -81 -38 -142 -97 -177 -172 -22 -48 -26 -69 -26 -151 0 -84 4 -102
29 -152 31 -63 92 -126 153 -156 49 -25 143 -45 196 -40 l41 3 83 -114 82
-114 -42 -30 c-62 -45 -231 -212 -296 -292 -79 -97 -165 -232 -223 -349 -26
-55 -49 -101 -51 -102 -4 -5 -277 113 -292 126 -7 5 -15 36 -18 67 -12 119
-106 252 -217 306 -202 98 -435 18 -528 -181 -24 -50 -27 -69 -27 -162 0 -99
2 -110 33 -172 40 -83 119 -158 200 -189 45 -18 76 -23 147 -23 103 0 166 21
247 81 l48 35 159 -62 158 -62 -19 -80 c-58 -250 -66 -516 -22 -785 6 -42 6
-43 -22 -44 -16 0 -64 -4 -107 -8 l-78 -7 -30 54 c-65 113 -181 195 -314 222
-216 44 -453 -101 -510 -313 -28 -102 -18 -226 23 -310 62 -125 172 -221 289
-251 220 -57 431 38 520 233 19 42 38 83 42 91 10 18 51 26 181 35 l95 7 19
-53 c49 -142 170 -352 281 -489 57 -70 242 -253 314 -312 l45 -36 -27 -39
c-14 -21 -50 -71 -80 -112 l-53 -74 -85 -1 c-70 -1 -93 -6 -141 -29 -74 -36
-139 -102 -175 -175 -24 -49 -28 -69 -28 -142 0 -71 4 -94 26 -141 50 -106
132 -172 247 -199 155 -36 334 63 391 216 30 77 28 171 -4 249 -14 33 -25 63
-25 67 0 5 39 59 87 120 48 62 88 115 90 118 2 2 30 -10 61 -27 170 -93 432
-170 652 -191 l75 -7 3 -265 2 -265 -67 -30 c-89 -38 -187 -134 -232 -225 -45
-94 -60 -211 -38 -309 33 -144 129 -265 262 -328 66 -31 89 -37 169 -41 110
-5 173 7 263 50 156 76 253 234 253 413 0 193 -105 360 -275 436 l-75 34 2
265 3 265 80 7 c203 18 443 87 637 183 39 20 74 32 78 28 11 -13 105 -135 143
-185 l35 -47 -17 -38 c-67 -140 -43 -292 62 -397 124 -123 306 -137 454 -33
85 60 134 158 134 268 0 116 -30 187 -110 262 -70 66 -127 89 -233 96 l-88 6
-75 105 c-41 57 -75 107 -75 110 0 3 32 35 71 70 l72 64 -81 17 c-44 10 -109
29 -143 43 -70 28 -61 30 -168 -39 -208 -134 -467 -226 -702 -250 l-66 -7 -7
32 c-3 18 -6 105 -6 194 0 143 -2 165 -20 194 -44 71 -117 87 -183 40 -50 -36
-57 -68 -57 -274 l0 -187 -71 7 c-290 27 -594 157 -852 366 -98 79 -250 248
-329 364 -73 109 -131 223 -124 242 3 8 19 14 35 14 48 0 165 28 302 71 113
36 133 46 164 80 43 48 47 98 12 150 -47 70 -108 76 -234 24 -98 -41 -215 -71
-313 -81 l-68 -6 -10 48 c-6 27 -18 111 -28 187 -14 118 -15 158 -6 272 11
133 37 283 51 298 7 7 267 -77 426 -138 83 -32 143 -30 180 5 58 55 57 131 -3
190 -33 32 -66 45 -275 114 -273 89 -252 66 -185 201 84 166 197 309 351 446
264 232 593 382 910 414 l67 7 0 -198 c0 -219 6 -246 63 -288 53 -39 145 -17
181 44 13 24 16 61 16 235 l0 208 63 -7 c230 -26 526 -133 712 -258 204 -138
372 -305 489 -486 52 -80 126 -220 126 -238 0 -6 -62 -33 -137 -59 -76 -26
-174 -64 -217 -83 -151 -66 -787 -422 -815 -456 -7 -8 -11 -27 -9 -43 2 -23
28 -46 144 -133 349 -259 542 -393 624 -435 87 -44 180 -67 298 -72 72 -4 112
-10 112 -17 0 -18 -45 -109 -99 -200 l-51 -86 23 -14 c54 -35 191 -106 202
-106 24 0 132 199 190 347 l28 73 36 -6 c20 -3 82 -10 139 -17 l103 -12 18
-51 c39 -116 127 -215 239 -267 167 -78 399 -31 520 107 123 141 148 375 56
532 -35 60 -135 151 -196 179 -29 13 -85 30 -125 37 -133 22 -287 -28 -386
-127 -29 -29 -64 -74 -78 -99 -27 -52 -27 -52 -174 -39 l-77 6 7 36 c51 279
46 531 -15 770 -11 44 -20 82 -20 84 0 3 66 33 148 67 81 34 151 66 156 70 4
5 31 -10 60 -31 100 -76 223 -104 335 -75 132 34 207 95 265 216 28 59 31 74
31 160 0 91 -2 100 -38 172 -58 118 -149 186 -279 208 -216 38 -431 -128 -456
-351 l-7 -63 -152 -67 -151 -66 -62 123 c-33 67 -95 171 -137 231 -73 103
-237 278 -365 389 l-57 49 86 110 87 111 70 0 c88 1 139 15 200 56 179 118
202 383 47 539 -71 71 -145 102 -246 102 -258 0 -416 -258 -309 -505 l16 -36
-83 -121 c-45 -67 -86 -121 -89 -121 -4 0 -52 22 -106 49 -184 90 -387 151
-574 173 -52 5 -100 12 -107 14 -9 2 -12 86 -13 338 l0 334 37 13 c144 46 245
144 293 284 63 183 12 387 -130 518 -119 109 -295 153 -449 111z m1755 -3204
c27 -122 26 -487 -2 -605 l-19 -80 -90 3 c-113 3 -248 26 -316 52 -64 26 -109
55 -322 213 l-169 125 119 68 c244 140 326 178 548 254 133 45 222 71 226 65
3 -5 15 -48 25 -95z"/>
<path d="M6374 4971 c-74 -45 -95 -121 -53 -191 27 -43 44 -57 89 -70 99 -27
200 69 175 167 -23 92 -133 141 -211 94z"/>
<path d="M2966 7694 c-51 -19 -75 -40 -97 -89 -22 -47 -23 -66 -8 -120 33
-118 175 -162 266 -82 100 88 80 232 -42 288 -47 22 -67 22 -119 3z"/>
<path d="M7097 7700 c-79 -15 -130 -79 -130 -164 0 -159 168 -233 279 -122
121 120 18 317 -149 286z"/>
<path d="M4523 7448 c2 -21 -17 -31 -187 -104 -105 -44 -191 -85 -193 -91 -5
-13 43 -119 58 -129 7 -4 19 2 28 14 9 11 66 41 126 65 61 25 143 59 184 76
41 17 82 31 92 31 16 0 19 8 19 54 l0 53 -47 18 c-27 10 -52 22 -57 26 -17 15
-26 10 -23 -13z"/>
<path d="M5563 7441 c-53 -22 -63 -30 -64 -51 0 -14 -4 -34 -8 -44 -7 -18 8
-26 133 -77 272 -110 301 -124 300 -142 -4 -48 40 4 65 76 l20 57 -37 16 c-20
8 -108 45 -195 81 -149 62 -158 67 -153 90 4 12 5 23 4 22 -2 -1 -31 -13 -65
-28z"/>
<path d="M2867 7106 c-47 -17 -71 -38 -91 -81 -33 -69 -14 -156 45 -203 l29
-23 0 -169 c0 -140 -3 -169 -15 -174 -51 -19 -73 -142 -35 -203 65 -107 248
-82 280 38 8 30 42 68 163 183 l152 146 -48 47 -48 48 -128 -133 -129 -134
-31 16 -31 17 0 154 0 155 39 36 c137 123 18 342 -152 280z"/>
<path d="M7180 7108 c-41 -11 -88 -52 -102 -88 -15 -40 -11 -117 9 -151 10
-17 33 -39 51 -51 l32 -20 0 -157 0 -156 -33 -18 -33 -18 -119 120 c-65 67
-122 126 -126 133 -4 7 -9 10 -11 8 -2 -3 -22 -26 -46 -51 l-43 -45 142 -145
c85 -86 148 -160 159 -184 44 -99 144 -130 236 -74 83 51 95 167 24 238 l-30
29 0 158 0 157 40 34 c46 39 65 94 55 155 -9 52 -64 114 -113 128 -43 11 -45
11 -92 -2z"/>
<path d="M4655 6264 c-250 -72 -436 -184 -625 -373 -111 -111 -210 -235 -210
-263 0 -10 134 -74 173 -83 18 -4 28 5 57 52 19 31 78 100 130 153 178 179
327 264 580 327 l35 9 1 81 c2 84 -4 133 -15 132 -3 0 -60 -16 -126 -35z"/>
<path d="M5350 6187 l0 -105 53 -13 c61 -14 190 -65 276 -108 60 -31 61 -31
231 -31 93 0 170 3 170 6 0 20 -261 190 -365 239 -95 45 -257 100 -325 111
l-40 7 0 -106z"/>
<path d="M5619 5752 c-14 -9 -88 -67 -165 -129 -76 -61 -198 -158 -270 -215
-72 -56 -227 -181 -343 -275 -116 -95 -214 -173 -216 -173 -3 0 -5 146 -5 325
0 361 -3 379 -62 415 -42 25 -104 26 -145 0 -66 -40 -63 0 -63 -845 0 -638 2
-770 14 -793 50 -95 151 -107 226 -27 l25 27 3 283 3 283 69 57 69 56 104 -88
c58 -48 140 -117 183 -153 44 -36 124 -103 179 -150 131 -111 373 -304 455
-362 86 -61 353 -219 461 -273 135 -68 183 -79 323 -72 65 3 121 9 124 12 8 8
-20 27 -188 125 -247 145 -303 187 -862 653 -415 345 -548 458 -548 467 0 13
481 395 965 768 61 47 114 89 119 94 6 4 -89 8 -210 8 -192 0 -222 -2 -245
-18z"/>
<path d="M2675 5260 c-11 -18 -85 -32 -101 -19 -12 10 -14 -12 -14 -153 l0
-164 65 -32 c36 -18 68 -32 70 -32 3 0 5 92 5 205 0 187 -5 227 -25 195z"/>
<path d="M7440 5082 c1 -100 4 -190 6 -200 5 -17 10 -16 69 13 61 29 63 31 66
71 2 23 2 98 0 168 -3 122 -4 125 -23 115 -20 -11 -48 -9 -96 6 l-23 8 1 -181z"/>
<path d="M3644 4976 c-93 -42 -109 -159 -31 -234 45 -43 98 -50 156 -20 97 51
110 183 23 244 -31 22 -111 27 -148 10z"/>
<path d="M3965 4159 c-22 -10 -64 -29 -92 -41 l-53 -23 67 -85 c183 -235 396
-396 650 -494 96 -37 248 -77 258 -68 3 3 5 50 5 104 0 70 -4 100 -12 102 -7
2 -53 16 -103 31 -246 73 -445 212 -599 418 -32 42 -64 77 -70 76 -6 0 -29 -9
-51 -20z"/>
<path d="M5612 3740 c-51 -27 -131 -58 -177 -71 l-85 -22 0 -104 c0 -56 4
-103 9 -103 5 0 65 16 133 35 117 34 332 130 386 173 l24 18 -97 62 c-53 34
-97 61 -98 61 -1 -1 -44 -23 -95 -49z"/>
<path d="M2850 3738 c-58 -30 -90 -77 -90 -135 0 -57 21 -102 60 -128 l30 -20
0 -247 c0 -135 3 -253 6 -262 4 -10 -5 -20 -25 -31 -66 -34 -92 -150 -48 -215
82 -122 275 -84 294 57 7 54 -25 127 -66 151 l-31 17 0 239 0 240 36 -35 c28
-26 252 -273 271 -298 2 -3 26 17 53 44 l49 48 -97 102 c-197 207 -240 258
-231 280 16 40 10 101 -13 135 -52 75 -124 96 -198 58z"/>
<path d="M7160 3738 c-69 -36 -100 -111 -76 -189 7 -24 -7 -41 -163 -203 -94
-97 -171 -180 -171 -184 0 -4 24 -26 54 -50 47 -36 55 -40 61 -25 3 10 73 88
155 173 l150 155 0 -242 0 -242 -31 -18 c-64 -37 -89 -145 -49 -211 23 -37 71
-69 118 -78 77 -15 168 53 179 134 6 48 -24 123 -60 146 l-24 16 -7 261 -7
260 47 43 c45 40 48 46 52 102 3 50 0 64 -20 93 -52 77 -130 99 -208 59z"/>
<path d="M4192 2630 c-37 -23 -38 -25 -46 -96 -6 -50 -6 -52 21 -57 16 -3 101
-35 191 -72 137 -57 162 -71 162 -89 0 -17 10 -10 50 34 68 75 77 90 52 96
-10 3 -101 38 -203 78 -166 66 -184 76 -189 100 l-5 26 -33 -20z"/>
<path d="M5920 2627 c0 -21 -22 -32 -205 -107 -113 -47 -205 -87 -205 -90 0
-3 24 -31 52 -64 43 -49 53 -56 63 -43 18 25 336 149 350 137 15 -13 25 28 25
101 0 43 -3 51 -24 59 -13 5 -27 14 -31 19 -11 19 -25 12 -25 -12z"/>
<path d="M2980 2377 c-51 -17 -65 -28 -94 -71 -62 -92 -16 -217 91 -245 123
-33 240 80 204 199 -15 52 -47 89 -95 111 -47 21 -58 22 -106 6z"/>
<path d="M7042 2360 c-48 -29 -72 -75 -72 -138 0 -98 46 -154 136 -168 59 -9
124 22 160 75 23 35 26 48 22 96 -5 62 -26 97 -78 133 -43 29 -121 30 -168 2z"/>
</g>
</svg>
